<svg id="Layer_1" data-name="Layer 1" xmlns="http://www.w3.org/2000/svg" viewBox="0 0 324 186"><title>checkout_logo</title><path d="M43.43,176.5a8.08,8.08,0,0,1-8,6.89H13.2a8.07,8.07,0,0,1-8-9.21c2.23-15.67,5.75-46.88.34-58.05C1.73,108.27-.82,92.6,3.77,84.75,6,80.86,7.33,75.72,8,69.86a7.78,7.78,0,0,1,7.72-7H38.6a7.76,7.76,0,0,1,7.69,8.77,35,35,0,0,1-4,13.1C40,88.8,39.5,94.93,40.13,101H18c-.63-6.07-.16-12.2,2.2-16.25A31.08,31.08,0,0,0,23.63,75H19.29a31.08,31.08,0,0,1-3.41,9.72c-4.59,7.85-2,23.52,1.77,31.38,5.09,10.51,2.28,38.75.07,55.11h4.34c1.42-10.52,3.09-26,2.75-38.43H46.92C47.33,147.58,44.91,166.51,43.43,176.5Z"/><path d="M79.21,116.13c5.68,11.75-1.47,67.26-1.47,67.26H68.32s9.11-52.1,1.77-67.26c-3.8-7.86-6.36-23.53-1.77-31.38A31.33,31.33,0,0,0,71.73,75H67.38A31.33,31.33,0,0,1,64,84.75c-4.59,7.85-2,23.52,1.77,31.38C73.09,131.29,64,183.39,64,183.39H46.86s9.12-52.1,1.78-67.26c-3.81-7.86-6.36-23.53-1.78-31.38,10.49-18,0-62.21,0-82.95h17c0,14.53,5.2,40.6,4.72,61.08h5.12a7.76,7.76,0,0,1,7.7,8.77,35.39,35.39,0,0,1-4,13.1C72.85,92.6,75.4,108.27,79.21,116.13Z"/><path d="M123.81,176.5a8.08,8.08,0,0,1-8,6.89H91.58a8.07,8.07,0,0,1-8-9.21c2.23-15.67,5.75-46.88.34-58.05-3.8-7.86-6.36-23.53-1.77-31.38,2.27-3.89,3.56-9,4.18-14.89a7.78,7.78,0,0,1,7.72-7H119a7.75,7.75,0,0,1,7.69,8.77,35.21,35.21,0,0,1-4,13.1c-4.06,7-2.52,20,.52,28.4H104.79a30.06,30.06,0,0,0,1.25,3c5.08,10.51,2.27,38.75.06,55.11h4.34c2.18-16.13,5-43.84.14-54.68h14.11C130.08,128.69,126,162,123.81,176.5ZM107.67,75a31.08,31.08,0,0,1-3.41,9.72c-2.36,4-2.83,10.18-2.2,16.25h4.34c-.63-6.07-.16-12.2,2.2-16.25A31.34,31.34,0,0,0,112,75Z"/><path d="M162.72,176.5a8.08,8.08,0,0,1-8,6.89H137.49a8.08,8.08,0,0,1-8-9.21c2.23-15.67,5.75-46.88.34-58.05-3.8-7.86-6.35-23.53-1.77-31.38,2.28-3.89,3.56-9,4.18-14.89a7.78,7.78,0,0,1,7.72-7h17.93a7.75,7.75,0,0,1,7.69,8.77,35.21,35.21,0,0,1-4,13.1c-2.36,4-2.83,10.18-2.21,16.25H140.31c-.62-6.07-.16-12.2,2.21-16.25A31.59,31.59,0,0,0,145.93,75h-4.35a31.33,31.33,0,0,1-3.4,9.72c-4.59,7.85-2,23.52,1.77,31.38,5.09,10.51,2.27,38.75.06,55.11h4.34c1.42-10.52,3.09-26,2.75-38.43h19.11C166.62,147.58,164.2,166.51,162.72,176.5Z"/><path d="M203.72,183.39H193.61s5.16-29.51,4.59-50.58h-4.34c.57,21.07-4.59,50.58-4.59,50.58H167.16s9.11-52.1,1.77-67.26c-3.81-7.86-6.36-23.53-1.77-31.38,10.48-18,0-62.21,0-82.95h22c0,20.74,10.61,65,.13,83-4.58,7.85-2,23.52,1.77,31.38a21.25,21.25,0,0,1,1.52,4.53l4.34-5a21.25,21.25,0,0,0-1.52-4.53c-3.8-7.86-6.35-18.53-1.77-26.38,3.15-5.38,4.4-13.09,4.62-21.87h13.09c-.2,8.78-1.45,16.49-4.6,21.87-4.58,7.85-1.78,24.44,2,32.3.56,1.16-6,4.5-6,4.5s4.93,2.79,5.16,5.19C210,147.62,203.72,183.39,203.72,183.39Z"/><path d="M248.31,176.5a8.08,8.08,0,0,1-8,6.89H221.07a8.07,8.07,0,0,1-8-9.21c2.23-15.67,5.75-46.88.34-58.05-3.8-7.86-6.36-23.53-1.77-31.38,2.27-3.89,3.56-9,4.18-14.89a7.78,7.78,0,0,1,7.72-7h19.93a7.76,7.76,0,0,1,7.69,8.77,35.21,35.21,0,0,1-3.95,13.1c-4.59,7.85-2,23.52,1.77,31.38C254.68,127.88,250.48,161.83,248.31,176.5Zm-8.37-5.26c2.21-16.35,5-44.6-.06-55.11-3.81-7.86-6.36-23.53-1.78-31.38A31.11,31.11,0,0,0,241.51,75h-4.34a31.11,31.11,0,0,1-3.41,9.71c-4.58,7.85-2,23.52,1.78,31.38,5.08,10.51,2.27,38.76.06,55.11Z"/><path d="M286.22,176.5c-.59,4-3,6.89-7,6.89H261a8.07,8.07,0,0,1-8-9.21c2.23-15.67,5.75-46.88.34-58.05-3.8-7.86-6.36-23.53-1.77-31.38,3.14-5.37,4.4-13.11,4.62-21.87h15.09c-.21,8.76-1.46,16.5-4.6,21.87-4.58,7.85-2,23.52,1.78,31.38,5.09,10.51,2.27,38.75.06,55.11h4.34c2.21-16.36,5-44.6-.06-55.11C269,108.27,266.43,92.6,271,84.75c3.14-5.37,4.4-13.11,4.62-21.87h14.09c-.21,8.76-1.45,16.5-4.59,21.87-4.59,7.85-2,23.52,1.77,31.38C292.59,127.88,288.4,161.83,286.22,176.5Z"/><path d="M312.85,84.75c-4.59,7.85-2,23.52,1.77,31.38,7.34,15.16-1.77,67.26-1.77,67.26H290.73s9.12-52.1,1.77-67.26c-3.8-7.86-6.35-23.53-1.77-31.38A31.08,31.08,0,0,0,294.14,75h-9.88V62.88h11.09c.51-20.48-4.64-46.55-4.64-61.08h22c0,14.53,5.21,40.6,4.73,61.08h3.46L319.42,75h-3.17A31.33,31.33,0,0,1,312.85,84.75Z"/></svg>